Coordinates
version=1
nRows=11
nColumns=40
inDegrees=yes

Units are S.I. units (second, meters, Newtons, ...)
Angles are in degrees.

endheader
time	pelvis_tilt	pelvis_list	pelvis_rotation	pelvis_tx	pelvis_ty	pelvis_tz	hip_flexion_r	hip_adduction_r	hip_rotation_r	knee_angle_r	knee_angle_r_beta	ankle_angle_r	subtalar_angle_r	mtp_angle_r	hip_flexion_l	hip_adduction_l	hip_rotation_l	knee_angle_l	knee_angle_l_beta	ankle_angle_l	subtalar_angle_l	mtp_angle_l	lumbar_extension	lumbar_bending	lumbar_rotation	arm_flex_r	arm_add_r	arm_rot_r	elbow_flex_r	pro_sup_r	wrist_flex_r	wrist_dev_r	arm_flex_l	arm_add_l	arm_rot_l	elbow_flex_l	pro_sup_l	wrist_flex_l	wrist_dev_l
     46.47000000	     -7.15737413	     -5.13645086	     -1.96490987	      0.92492017	      0.92804647	      0.46145356	     38.61710264	     -3.11221392	     -6.48903029	     70.67126837	     70.67126837	     -1.63135512	    -16.70700927	      0.37538701	     16.16892008	     -6.83327560	     -7.97055745	     23.08269468	     23.08269468	     15.70404193	    -13.65306694	      4.96105603	    -13.12101590	      6.45848891	      4.91188343	      3.81940400	    -12.74517276	     -6.07626635	     28.75727784	     46.79086736	      0.00000000	      0.00000000	     16.59130849	    -18.08183503	     -6.17032736	     89.95580943	     47.90345514	      0.00000000	      0.00000000
     46.48171429	     -7.18943428	     -5.29486197	     -2.15166686	      0.92456036	      0.92813051	      0.46203375	     39.64418338	     -2.80825190	     -7.05882682	     69.27901246	     69.27901246	     -1.23180777	    -16.72178550	      0.73860010	     15.39171758	     -7.04817176	     -8.18477229	     22.69096847	     22.69096847	     16.02037347	    -13.45299964	      4.68861011	    -13.15880361	      6.59087137	      4.86318361	      2.57370349	    -12.64243320	     -5.86164554	     27.52711672	     46.80892616	      0.00000000	      0.00000000	     17.71866472	    -18.38115487	     -6.67354746	     92.11406258	     47.99047910	      0.00000000	      0.00000000
     46.49342857	     -7.23354162	     -5.40556139	     -2.32245197	      0.92431288	      0.92808702	      0.46264984	     40.51799055	     -2.53944279	     -7.59492721	     67.52557631	     67.52557631	     -0.82841387	    -16.54660759	      1.10982421	     14.61276029	     -7.21473208	     -8.44645140	     22.29362672	     22.29362672	     16.29859828	    -13.19663148	      4.31736812	    -13.16036849	      6.67700264	      4.70214685	      1.37569216	    -12.53946424	     -5.60605978	     26.59910860	     46.81027116	      0.00000000	      0.00000000	     18.68317243	    -18.73564461	     -7.13851758	     94.46719725	     48.07944835	      0.00000000	      0.00000000
     46.50514286	     -7.27825216	     -5.47719148	     -2.46845950	      0.92414009	      0.92799194	      0.46333092	     41.20201149	     -2.30137964	     -8.10092886	     65.38532803	     65.38532803	     -0.47309962	    -16.17263514	      1.35916858	     13.80445525	     -7.32695670	     -8.68415221	     21.83387790	     21.83387790	     16.55542614	    -12.93663716	      3.91793722	    -13.17574211	      6.70827833	      4.49866456	      0.15438094	    -12.43897146	     -5.32101915	     26.02785040	     46.79315187	      0.00000000	      0.00000000	     19.55936783	    -19.08998805	     -7.60933685	     96.77526725	     48.17047538	      0.00000000	      0.00000000
     46.51685714	     -7.33414505	     -5.52646415	     -2.57874257	      0.92403551	      0.92777370	      0.46408303	     41.71025406	     -2.07192847	     -8.56612607	     62.87898148	     62.87898148	     -0.19342748	    -15.63908868	      1.35875309	     12.99641294	     -7.41893010	     -8.95164156	     21.33082948	     21.33082948	     16.57754145	    -12.72291366	      3.02727782	    -13.17714565	      6.72279047	      3.82920260	     -0.99240834	    -12.40706213	     -4.38907477	     26.18152388	     46.67803056	      0.00000000	      0.00000000	     19.90004012	    -19.70567488	     -8.46334407	     99.54184566	     48.31286857	      0.00000000	      0.00000000
     46.52857143	     -7.38342096	     -5.54838332	     -2.65780672	      0.92404723	      0.92757062	      0.46489981	     41.99015478	     -1.86782678	     -9.00397779	     59.97839735	     59.97839735	      0.11762242	    -14.82190230	      1.38301721	     12.16006622	     -7.44580962	     -9.08838069	     20.80148742	     20.80148742	     16.84533062	    -12.54095658	      2.90155061	    -13.12372045	      6.72615307	      3.71443791	     -2.28489203	    -12.33027384	     -4.19114480	     25.87972446	     46.65903731	      0.00000000	      0.00000000	     20.96053398	    -19.85496546	     -8.71322800	    100.91616201	     48.36725911	      0.00000000	      0.00000000
     46.54028571	     -7.57101693	     -5.51523813	     -2.71219442	      0.92402726	      0.92701995	      0.46593002	     42.23887997	     -1.64909506	     -9.32093480	     56.73626432	     56.73626432	      0.43702974	    -13.90122555	      1.44849715	     11.51652084	     -7.43720696	     -9.21704336	     20.33464387	     20.33464387	     17.12385675	    -12.35640205	      2.77068252	    -12.90840817	      6.62175235	      3.47597821	     -3.50991246	    -12.15477261	     -4.08803136	     25.67336338	     46.64520332	      0.00000000	      0.00000000	     21.95588989	    -20.23332362	     -8.96106418	    102.04687473	     48.41403000	      0.00000000	      0.00000000
     46.55200000	     -7.39906467	     -5.38196921	     -2.78692655	      0.92452214	      0.92684880	      0.46691904	     41.81342010	     -1.58769503	     -9.64779448	     53.11164918	     53.11164918	      0.78288607	    -12.46401041	      0.79928284	     10.29668653	     -7.31423336	     -9.64506577	     19.60649506	     19.60649506	     17.31157424	    -11.81955199	      2.35111664	    -13.15975175	      6.41124507	      3.52042608	     -5.09082321	    -12.18526204	     -3.78668774	     26.33575540	     46.56710645	      0.00000000	      0.00000000	     22.60289473	    -20.20374876	     -8.87520903	    104.75045448	     48.47745134	      0.00000000	      0.00000000
     46.56371429	     -7.46038426	     -5.33696632	     -2.76590010	      0.92500778	      0.92616364	      0.46808251	     41.28530548	     -1.37426629	    -10.00563124	     48.86457686	     48.86457686	      0.19430662	    -11.63709136	     -2.13678594	      9.40700182	     -7.29392013	     -9.85948376	     18.94607821	     18.94607821	     17.20693079	    -11.56945805	      1.19737826	    -13.07603739	      6.34164402	      3.32763461	     -7.34347607	    -12.71225807	     -1.01130601	     29.22851594	     46.17254148	      0.00000000	      0.00000000	     23.20708226	    -20.45546811	     -8.77676596	    106.33957096	     48.58113696	      0.00000000	      0.00000000
     46.57542857	     -7.62012423	     -5.24790452	     -2.72206236	      0.92557378	      0.92515941	      0.46944471	     40.76520771	     -1.12918407	    -10.19128444	     44.59621296	     44.59621296	      0.65716883	    -10.25558812	     -1.83665565	      8.71131223	     -7.23545874	     -9.93136031	     18.48523952	     18.48523952	     17.51477465	    -11.27662210	      1.07595744	    -12.83080341	      6.22450816	      3.07100939	     -8.39648533	    -12.53691456	     -0.95701042	     29.06364553	     46.16503032	      0.00000000	      0.00000000	     23.88240771	    -20.72289482	     -8.87161026	    107.23239270	     48.61222092	      0.00000000	      0.00000000
     46.58714286	     -7.43034376	     -5.07726586	     -2.64108922	      0.92677449	      0.92440439	      0.47075383	     39.58058844	     -1.11260801	    -10.68247446	     40.11480801	     40.11480801	      1.17301981	     -8.17549255	     -1.83911714	      7.45926147	     -7.09990206	    -10.35627913	     17.77769065	     17.77769065	     17.88949466	    -10.41829684	      0.76005220	    -12.97368652	      5.96324668	      2.99496423	     -9.73816769	    -12.52456388	     -0.95273884	     29.59285386	     46.12620607	      0.00000000	      0.00000000	     24.23434183	    -20.78059696	     -8.56903975	    109.18257700	     48.64606130	      0.00000000	      0.00000000
